<?xml version="1.0" encoding="iso-8859-1"?>
<!-- Generator: Adobe Illustrator 19.0.0, SVG Export Plug-In . SVG Version: 6.00 Build 0)  -->
<svg version="1.1" id="Capa_1" xmlns="http://www.w3.org/2000/svg" xmlns:xlink="http://www.w3.org/1999/xlink" x="0px" y="0px"
	 viewBox="0 0 512 512" style="enable-background:new 0 0 512 512;" xml:space="preserve">
<polygon style="fill:#68544F;" points="301,331 301,466 211,466 211,331 256,301 "/>
<polygon style="fill:#53433F;" points="256,301 301,331 301,466 256,466 "/>
<polygon style="fill:#D3D3D8;" points="331,241 301,331 211,331 181,241 256,211 "/>
<polygon style="fill:#BABAC0;" points="301,331 256,331 256,211 331,241 "/>
<polygon style="fill:#68544F;" points="331,181 331,241 181,241 181,181 252.1,151 256,152.5 "/>
<polygon style="fill:#53433F;" points="331,181 331,241 256,241 256,152.5 "/>
<path style="fill:#E7E7E7;" d="M151,91v90h210V91H151z"/>
<g>
	<path style="fill:#9ED0FF;" d="M136,121H45c-24.814,0-45-20.186-45-45s20.186-45,45-45c14.092,0,27.554,6.724,36.021,18.003v0.015
		L136,121z"/>
	<path style="fill:#9ED0FF;" d="M45,241c-24.814,0-45-20.186-45-45s20.186-45,45-45h91l-54.979,71.997
		C72.554,234.276,59.092,241,45,241z"/>
</g>
<g>
	<path style="fill:#73BCFF;" d="M467,121h-91l54.979-71.982C439.432,37.738,452.894,31,467,31c24.814,0,45,20.186,45,45
		S491.814,121,467,121z"/>
	<path style="fill:#73BCFF;" d="M467,241c-14.106,0-27.568-6.738-36.021-18.018L376,151h91c24.814,0,45,20.186,45,45
		S491.814,241,467,241z"/>
</g>
<rect x="151" y="451" style="fill:#A8D32A;" width="210" height="30"/>
<rect x="256" y="91" style="fill:#D3D3D8;" width="105" height="90"/>
<rect x="256" y="451" style="fill:#93BF00;" width="105" height="30"/>
<g>
</g>
<g>
</g>
<g>
</g>
<g>
</g>
<g>
</g>
<g>
</g>
<g>
</g>
<g>
</g>
<g>
</g>
<g>
</g>
<g>
</g>
<g>
</g>
<g>
</g>
<g>
</g>
<g>
</g>
</svg>
